# xmcd
#
# Track frame offsets:
#	150
#	12946
#	28489
#	41837
#	58633
#	77246
#	90009
#	106135
#	124257
#	138260
#	152906
#	166593
#
# Disc length: 2463 seconds
# Revision: 1
# Processed by: cddbd v1.5.2PL0 Copyright (c) Steve Scherf et al.
# Submitted via: dBpowerAMP V12.0
#
DISCID=90099d0c
DTITLE=Gary Boyle - Country at Heart
DYEAR=2013
DGENRE=Country
TTITLE0=Make The World Go Away
TTITLE1=Dance With This Old Cowboy
TTITLE2=A Little Bitty Tear
TTITLE3=Me and Bobby McGee
TTITLE4=Sunday Mornin Comin Down
TTITLE5=The Last Thing On My Mind
TTITLE6=Crying Time
TTITLE7=There Goes My Everything
TTITLE8=Paloma Blanca
TTITLE9=Just Outside Your Door
TTITLE10=Don't It Make You Want To Go Home
TTITLE11=Danny Boy
EXTD=
EXTT0=
EXTT1=
EXTT2=
EXTT3=
EXTT4=
EXTT5=
EXTT6=
EXTT7=
EXTT8=
EXTT9=
EXTT10=
EXTT11=
PLAYORDER=
